# xmcd CD database file
#
# Track frame offsets:
#	150
#	20512
#	39882
#	61025
#	77927
#	97232
#	120217
#	142540
#	163352
#	182550
#	206935
#	226197
#	246292
#	265160
#	285415
#	304800
#
# Disc length: 4340 seconds
#
# Revision: 0
# Processed by: cddbd v1.4PL0 Copyright (c) Steve Scherf et al.
# Submitted via: CDex 1.50
#
DISCID=d210f210
DTITLE=Various Artist - La noche Cubana vol. 5
DYEAR=1997
DGENRE=Salsa
TTITLE0=DLG - No morira (No matter what)
TTITLE1=Los Titanes - Fue candela
TTITLE2=DLG - Me va a extrañar (Unchain my heart)
TTITLE3=Oscar d'Leon - Lloraras
TTITLE4=Alfredo de la Fé - Alma de niña
TTITLE5=Willy Chirino - La jinetera
TTITLE6=The Latin Brothers - Nadie es eterno
TTITLE7=DLG - Muevete
TTITLE8=Pedro Neira - Mia
TTITLE9=Frankie Ruiz - El camionero
TTITLE10=Los Titanes - Poco a poco
TTITLE11=Pedro Neira - Te busque
TTITLE12=Alfredo de la Fé - Sin detenerte
TTITLE13=Los Titanes - A quien decirle que te amo
TTITLE14=Los Niches - Canto a mi tierra
TTITLE15=Tabaco y sus Metáles - Una sola bandera
EXTD=YEAR: 1997
EXTT0=
EXTT1=
EXTT2=
EXTT3=
EXTT4=
EXTT5=
EXTT6=
EXTT7=
EXTT8=
EXTT9=
EXTT10=
EXTT11=
EXTT12=
EXTT13=
EXTT14=
EXTT15=
PLAYORDER=
